<svg width="218" height="218" viewBox="0 0 218 218" fill="none" xmlns="http://www.w3.org/2000/svg">
<rect width="218" height="218" fill="#00315F"/>
<path d="M180.812 156.059V154.57L179.77 153.428L179.078 151.32L176.216 148.859V146.051L146.884 120.958C146.857 121.026 146.831 121.094 146.797 121.176L135.36 111.393L96.7762 78.3797L95.3853 22H37.2269L36.7027 22.3059C36.7027 22.3059 37.0925 23.1421 37.2269 23.4888C37.3545 23.8424 37.6637 24.8961 36.8371 25.644C36.0106 26.3918 36.3601 26.9628 36.3601 26.9628C36.3601 26.9628 37.2739 27.6223 37.8787 27.9282C38.4834 28.2341 39.1352 31.5722 39.1352 32.5374C39.1352 33.5028 38.3558 36.1815 37.919 37.7179C37.4822 39.2543 37.9593 40.4372 38.3087 41.0967C38.6581 41.7561 36.4003 45.9711 36.4003 45.9711C36.4003 45.9711 33.4168 51.2398 34.1023 52.1645C34.7877 53.089 34.6668 55.5025 34.6668 55.5025L38.4029 58.929V60.1595C38.4029 60.1595 41.9642 63.9394 41.7896 64.2454C41.6149 64.5513 42.0517 66.3121 42.3944 66.924C42.7438 67.5359 42.0046 70.6563 42.0046 70.6563V73.3349C42.0046 73.3349 42.7841 76.1902 43.3956 77.0671C44.0003 77.9441 43.1335 80.0516 43.1335 80.0516C43.1335 80.0516 42.9588 80.6634 43.1335 80.9286C43.3082 81.1937 47.4743 86.374 48.1261 86.8159C48.7779 87.2578 52.2518 91.0717 52.2518 91.0717V92.5197L53.2463 93.0024L54.1602 94.7564L54.2005 95.0011C57.1974 96.9387 54.2677 95.3886 54.3281 95.7625C54.5028 96.7687 53.2396 97.3397 53.2396 97.3397V98.611L54.1938 98.5703C54.1938 98.5703 55.0606 97.6933 56.1895 98.7878C57.3184 99.8891 58.7497 100.324 58.7497 100.324C58.7497 100.324 59.5762 101.82 60.4833 102.078C61.3972 102.343 60.7857 105.987 60.7857 105.987V107.7L61.8205 109.237C61.8205 109.237 62.1363 109.502 61.9146 110.739C61.6996 111.983 61.9146 113.404 61.9146 113.404L64.7368 116.565L66.9945 118.449C66.9945 118.449 67.3843 118.85 69.2523 118.496C71.1203 118.143 70.9456 119.815 70.9456 119.815L71.4227 122.052L70.5089 124.288C70.5089 124.288 70.8583 123.058 69.38 123.894C67.9084 124.73 69.595 127.626 69.595 127.626V129.863C69.595 129.863 70.9859 132.277 71.9402 132.195C72.8943 132.107 74.7623 135.968 74.7623 135.968L75.8912 136.233L76.1936 138.212L76.758 138.653C76.758 138.653 78.1893 139.619 78.4043 140.632C78.6194 141.638 77.5375 142.209 79.7079 142.739C81.8783 143.269 80.7965 142.522 81.1862 143.528C81.576 144.541 83.659 146.295 83.659 146.295L85.1776 149.191C84.9626 149.497 85.1776 150.904 85.1776 150.904L86.4812 151.822L88.6516 152.128C88.6516 152.128 88.954 152.61 88.954 153.317C88.954 154.018 88.4299 155.731 88.4299 156.655C88.4299 157.58 90.6876 157.227 89.5587 157.58C88.4299 157.934 89.0279 159.511 89.0279 159.511C89.0279 159.511 89.9082 159.157 89.2967 161.353C88.6919 163.549 89.2967 163.196 89.2967 163.196C89.2967 163.196 90.6003 163.019 91.0303 164.338C91.4671 165.657 92.7639 165.391 92.7639 165.391C92.7639 165.391 94.2422 165.126 96.2379 164.861C98.2337 164.596 100.928 165.65 100.928 165.65C100.928 165.65 106.223 166.262 106.66 166.262C106.989 166.262 108.286 166.262 109.227 167.084C109.234 167.268 109.247 167.451 109.254 167.635C110.255 168.172 111.384 168.757 111.619 168.757C112.056 168.757 111.007 170.075 114.307 169.199C117.606 168.322 118.13 168.933 118.13 168.933C118.13 168.933 120.126 171.918 119.689 172.536C119.252 173.155 119.427 174.025 119.864 174.025C120.301 174.025 120.905 174.902 121.86 174.991C122.814 175.079 122.814 173.413 122.814 173.413C122.814 173.413 123.338 172.536 124.635 173.679C125.938 174.821 127.934 176.133 127.934 176.133C127.934 176.133 129.063 177.894 131.751 178.941C134.446 179.994 138.262 187.813 137.825 189.478C137.389 191.144 138.175 191.144 138.175 191.144C138.175 191.144 137.825 192.021 139.216 192.728C140.607 193.428 139.653 197.031 140.869 195.712C142.086 194.393 177.322 192.116 180.709 188.778C184.096 185.44 180.622 181.925 180.367 182.544C180.105 183.156 177.329 183.421 178.196 181.844C179.063 180.266 178.371 179.036 178.371 179.036C178.371 179.036 177.417 176.752 177.934 176.752C178.458 176.752 179.063 175.263 179.325 174.556C179.587 173.855 179.668 172.625 179.668 172.625C179.668 172.625 179.755 169.987 180.36 170.164C180.965 170.341 177.672 168.587 179.836 165.949C182.006 163.311 178.707 164.195 180.965 163.141C183.222 162.087 184.439 160.157 184.956 159.014C185.5 157.899 180.81 156.057 180.81 156.057L180.812 156.059Z" fill="white"/>
</svg>
